<svg xmlns="http://www.w3.org/2000/svg" viewBox="0 0 354.84 109.93"><title>corporate_logo</title><path d="M78.28.21A9.82,9.82,0,0,1,82.1,1,9.56,9.56,0,0,1,85.22,3a8.79,8.79,0,0,1,2,3.06,7.78,7.78,0,0,1,.42,3.75,6.9,6.9,0,0,1-2.32,4.6A7.9,7.9,0,0,1,80,16.11a4.88,4.88,0,0,1-2.43-.58,14.4,14.4,0,0,1-1.89-1.25L74.07,13a2.63,2.63,0,0,0-1.65-.59,34.46,34.46,0,0,0-6.77.8,53.46,53.46,0,0,0-9.05,2.87,70,70,0,0,0-9.46,4.71,102.23,102.23,0,0,0-9,6.09,81.32,81.32,0,0,0-8.48,7.34,93.12,93.12,0,0,0-7.42,8.19,29.58,29.58,0,0,0-2.44,3.67,38.14,38.14,0,0,0-2.17,4.44,42.08,42.08,0,0,0-1.69,4.89,35,35,0,0,0-1,5,5.24,5.24,0,0,0,.92,4A8.47,8.47,0,0,0,18.93,67,15,15,0,0,0,23,68.2a23.93,23.93,0,0,0,3.84.35,32.89,32.89,0,0,0,6.63-.74,55.4,55.4,0,0,0,7.19-2,65.82,65.82,0,0,0,7.16-3.06A60.56,60.56,0,0,0,54.31,59c.51-.36,1.23-.93,2.18-1.73s1.89-1.67,2.82-2.61,1.76-1.86,2.5-2.76A5,5,0,0,0,63,49.67a5.21,5.21,0,0,0,0-1.12c0-.42-.07-.85-.11-1.27s-.07-.84-.11-1.25a4.72,4.72,0,0,1,0-1q.42-3.45,7.07-3.45a6.81,6.81,0,0,1,3.23.8,11.35,11.35,0,0,1,2.66,1.91,10.85,10.85,0,0,1,1.82,2.31,3.88,3.88,0,0,1,.63,2,7.77,7.77,0,0,1-.6,1.19c-.39.7-.88,1.54-1.48,2.53l-2,3.22c-.71,1.15-1.38,2.22-2,3.21S71,60.62,70.54,61.34s-.74,1.18-.84,1.36q-1,1.92-2.27,4.63t-2.34,5.45Q64,75.51,63.21,77.94a22.46,22.46,0,0,0-.94,3.69,1.54,1.54,0,0,0,.14.88,5.24,5.24,0,0,0,.41.74l.42.67a.9.9,0,0,1,.16.64,7.75,7.75,0,0,1-.93,2.87,8.75,8.75,0,0,1-7.68,4.47,7,7,0,0,1-3.09-.59,4.29,4.29,0,0,1-1.82-1.65,5.67,5.67,0,0,1-.75-2.58,17.15,17.15,0,0,1,.13-3.37,11.49,11.49,0,0,1,1-3c.54-1.28,1.17-2.63,1.88-4.07s1.43-2.85,2.17-4.25,1.34-2.57,1.81-3.49q-3.85,2.4-7.41,4.47A58.66,58.66,0,0,1,41.33,77a45.81,45.81,0,0,1-8.06,2.42,48.48,48.48,0,0,1-9.6.87,32.66,32.66,0,0,1-9.85-1.43,24.18,24.18,0,0,1-7.73-4A16.84,16.84,0,0,1,1.26,69,12.85,12.85,0,0,1,.11,61.69,44.12,44.12,0,0,1,5.56,45.84,76.84,76.84,0,0,1,18.22,29.36q3.41-3.46,6.93-6.57t6.69-5.56C33.32,16.1,35,15,36.78,13.8s3.7-2.26,5.67-3.32,4-2.06,6.06-3S52.62,5.74,54.67,5s4.25-1.47,6.21-2.08,3.86-1.09,5.74-1.48S70.38.75,72.29.53A54.57,54.57,0,0,1,78.28.21Z"/><path d="M135.31,39.09a5.69,5.69,0,0,1-.37,1.28,8.08,8.08,0,0,1-.83,1.59,5.92,5.92,0,0,1-1.26,1.38,2.89,2.89,0,0,1-1.7.64l-.9,0c-.46,0-.95,0-1.48-.07l-1.48-.09-1,0a27.23,27.23,0,0,0-16.15,6.38,41.11,41.11,0,0,0-3.44,3.14q-1.8,1.8-3.57,4t-3.47,4.6A55.69,55.69,0,0,0,96.53,67c-.79,1.45-1.55,3-2.31,4.49s-1.45,3.16-2.09,4.86c-.36.93-.64,1.73-.85,2.42a22.07,22.07,0,0,1-.91,2.42,4.13,4.13,0,0,1-1.08,1.47,7,7,0,0,1-1.62,1,10.28,10.28,0,0,1-1.85.61A11.35,11.35,0,0,1,84,84.5a4,4,0,0,1-4.3-3.08c-.6-2.06-.65-5.12-.15-9.2.11-.92.23-1.79.35-2.61s.25-1.64.41-2.47.32-1.7.5-2.6.4-1.93.64-3.06q.52-2.5,1.32-5.93t1.65-7c.57-2.36,1.16-4.63,1.77-6.83s1.18-4.06,1.72-5.59a10.75,10.75,0,0,1,2.7-4.41,6.56,6.56,0,0,1,4.64-1.6,3.48,3.48,0,0,1,1.67.46A5.76,5.76,0,0,1,98.3,31.7a5.52,5.52,0,0,1,1,1.38,2.77,2.77,0,0,1,.37,1.33l-.06,1a29.2,29.2,0,0,1-.7,3.51c-.34,1.34-.76,2.77-1.24,4.28s-1,3-1.52,4.57-1.05,3-1.55,4.41-1,2.7-1.38,3.89-.74,2.17-1,2.95Q94.58,55,97.16,51.4a71.25,71.25,0,0,1,5.4-6.75,48.29,48.29,0,0,1,6-5.56,30.17,30.17,0,0,1,6.55-3.94,37.89,37.89,0,0,1,4.9-1.78,14.6,14.6,0,0,1,3.9-.61,20.24,20.24,0,0,1,4.12.43,15.82,15.82,0,0,1,3.78,1.24,8.69,8.69,0,0,1,2.71,2A3.26,3.26,0,0,1,135.31,39.09Z"/><path d="M184.73,64.24a8.59,8.59,0,0,1-.65,2.21A10.39,10.39,0,0,1,182.5,69a26.31,26.31,0,0,1-3.09,3.48,28.76,28.76,0,0,1-4.15,3.27,23.53,23.53,0,0,1-4.87,2.42,15.57,15.57,0,0,1-5.3.93,10.55,10.55,0,0,1-5.32-1.28,11,11,0,0,1-3.72-3.48,15.92,15.92,0,0,1-2.2-5.1,24.78,24.78,0,0,1-.68-6.09,60.53,60.53,0,0,1-5.86,6.3,55.61,55.61,0,0,1-6.61,5.32A36.24,36.24,0,0,1,134,78.42a16.78,16.78,0,0,1-6.23,1.35,8,8,0,0,1-3.82-.93,9,9,0,0,1-3-2.53,11,11,0,0,1-1.81-3.67,10.74,10.74,0,0,1-.31-4.36,28.78,28.78,0,0,1,.87-4.28,37.09,37.09,0,0,1,1.74-4.86c.74-1.74,1.68-3.64,2.8-5.69s2.47-4.31,4-6.76a54.54,54.54,0,0,1,6.12-7.79,69,69,0,0,1,7-6.49A42.42,42.42,0,0,1,148,28a11.82,11.82,0,0,1,5-1.65,5.16,5.16,0,0,1,1.28.19c.46.13.9.27,1.31.43s.76.31,1.06.45a.69.69,0,0,0,1,0,9.07,9.07,0,0,1,.85-.45,9.9,9.9,0,0,1,1.09-.43,4,4,0,0,1,1.17-.19,4.09,4.09,0,0,1,1.88.51,7.9,7.9,0,0,1,1.83,1.33A9.23,9.23,0,0,1,165.9,30a4.59,4.59,0,0,1,.71,2,6.69,6.69,0,0,0,.16.87,2.75,2.75,0,0,0,.16.4,4.8,4.8,0,0,1,.95,1.41,4.33,4.33,0,0,1,.16,2.16,14.5,14.5,0,0,1-.63,2.31c-.37,1.11-.79,2.38-1.27,3.8s-.92,2.9-1.34,4.44a29.14,29.14,0,0,0-.86,4.23,46.14,46.14,0,0,0-.41,8.32,21.15,21.15,0,0,0,.9,5.45,6.12,6.12,0,0,0,1.81,3,3.73,3.73,0,0,0,2.34.88,11.87,11.87,0,0,0,5.72-1.33,16.5,16.5,0,0,0,4.52-3.61l1-1a7,7,0,0,1,.78-.77,2.8,2.8,0,0,1,.86-.48,3.34,3.34,0,0,1,1.11-.16,2.43,2.43,0,0,1,1.57.66A1.88,1.88,0,0,1,184.73,64.24ZM155.62,41.43a13.16,13.16,0,0,0,0-4.6c-.25-.94-.63-1.41-1.13-1.41a5.8,5.8,0,0,0-2.1.45A12.3,12.3,0,0,0,150.15,37a18,18,0,0,0-2.08,1.57,16.36,16.36,0,0,0-1.67,1.65c-.83,1-1.78,2.2-2.82,3.51s-2.13,2.71-3.23,4.2-2.19,3-3.25,4.57-2,3.11-2.88,4.63A45,45,0,0,0,132,61.58a14.66,14.66,0,0,0-1.11,3.83,6.27,6.27,0,0,0,.18,2.9,1.68,1.68,0,0,0,1.78,1.09,5.42,5.42,0,0,0,2.39-1.06,42.28,42.28,0,0,0,3.63-2.69q2-1.62,4-3.53a37.51,37.51,0,0,0,3.37-3.67c1-1.28,2-2.64,3.06-4.1s2-2.92,2.88-4.41a36.36,36.36,0,0,0,2.27-4.42A15.29,15.29,0,0,0,155.62,41.43Z"/><path d="M263.17,43.5a2.86,2.86,0,0,1-.74,1.46,12.33,12.33,0,0,1-1.54,1.52,18.68,18.68,0,0,1-1.78,1.33,14.22,14.22,0,0,1-1.46.85c-.7.18-1.55.35-2.57.51s-2,.3-3,.42-1.87.23-2.67.32l-1.65.19c-1.08.1-2.07.17-3,.21a7.15,7.15,0,0,0-2.31.43c-.06.17-.21.73-.45,1.67s-.52,2.07-.84,3.4-.67,2.74-1.05,4.23-.72,2.87-1,4.15-.58,2.36-.8,3.24S238,68.8,238,68.87l-1.32,5.32q-.78,3.14-1.77,6.59c-.65,2.31-1.38,4.59-2.17,6.86a62.7,62.7,0,0,1-2.49,6.17,37.11,37.11,0,0,1-3.48,6.06,26.31,26.31,0,0,1-4.31,4.79,18.86,18.86,0,0,1-5.09,3.16,15.09,15.09,0,0,1-5.89,1.15,10,10,0,0,1-6-2,7,7,0,0,1-1.84-2.13,4.08,4.08,0,0,1-.49-2.47,5.21,5.21,0,0,1,1.12-2.79,3.63,3.63,0,0,1,3-1.09,7.38,7.38,0,0,1,1,.1c.47.08,1,.16,1.49.27s1,.19,1.43.27a6.68,6.68,0,0,0,.81.1q4.2,0,8.27-9.12t7.93-27.52c.15-.64.34-1.51.59-2.63s.5-2.27.77-3.46.52-2.3.75-3.35.38-1.8.44-2.26l-5.45,0q-3,0-6,.1c-2,.06-4,.1-6,.14s-3.74.08-5.34.13-3,.09-4.08.11l-2.21,0c-.07.25-.31,1.18-.72,2.8s-.9,3.56-1.49,5.85-1.2,4.75-1.86,7.39-1.28,5.11-1.87,7.42-1.08,4.28-1.5,5.93-.66,2.61-.73,2.89c-.26,1-.55,2-.88,3.06s-.68,2.15-1.05,3.19-.75,2-1.11,3-.72,1.76-1.05,2.47a35,35,0,0,1-7.29,10,14.75,14.75,0,0,1-10.56,4.63,7.64,7.64,0,0,1-2.5-.43,8.64,8.64,0,0,1-2.2-1.14,5.35,5.35,0,0,1-1.5-1.63,2.84,2.84,0,0,1-.41-1.86,7.49,7.49,0,0,1,.62-2,10.36,10.36,0,0,1,1.34-2.26,10.24,10.24,0,0,1,1.82-1.84,3.44,3.44,0,0,1,2.12-.77,6.4,6.4,0,0,1,.84.08c.35,0,.71.12,1.09.21s.74.16,1.09.21a5,5,0,0,0,.84.08,6.94,6.94,0,0,0,1.82-1.78A16.69,16.69,0,0,0,178,94.18c.45-1,.88-2,1.28-3.11s.78-2.24,1.14-3.37q2.25-7.14,4-13.7t3-12.79c.14-.5.29-1.12.47-1.86s.36-1.54.54-2.39.34-1.7.49-2.53.28-1.59.36-2.26c0-.21-.12-.5-.43-.85s-.64-.74-1-1.17a11.36,11.36,0,0,1-1-1.38,2.44,2.44,0,0,1-.34-1.6,4.94,4.94,0,0,1,1-2,41.49,41.49,0,0,1,2.89-3.4A23.18,23.18,0,0,0,192.73,39a11,11,0,0,0,1.21-2.29,16.15,16.15,0,0,0,.71-2.55c.19-.94.47-2.12.86-3.54s.77-2.76,1.12-3.93.68-2.22,1-3.14a42.93,42.93,0,0,1,2.51-5.93,67.16,67.16,0,0,1,3.42-6,39.5,39.5,0,0,1,3.27-3.86,32.23,32.23,0,0,1,4-3.54,22.71,22.71,0,0,1,4.5-2.6,11.7,11.7,0,0,1,4.67-1,10.44,10.44,0,0,1,4.48.93A9.84,9.84,0,0,1,227.79,4a9.61,9.61,0,0,1,2.3,7.47,17.06,17.06,0,0,1-1.71,5.45,36.6,36.6,0,0,1-3.78,5.93q-3,3.93-6.12,3.93h-.91q1-2.6,1.59-4.89a31.09,31.09,0,0,0,.86-4.2,17.62,17.62,0,0,0-.05-6.09c-.36-1.4-.9-2.1-1.61-2.1a2.51,2.51,0,0,0-1.39.72,14.92,14.92,0,0,0-1.79,1.83c-.62.75-1.25,1.56-1.87,2.45s-1.18,1.74-1.67,2.55a36.3,36.3,0,0,0-2,4.18q-1.09,2.63-2.16,5.66t-2,6.14q-.92,3.12-1.43,5.56c-.13,1.1,0,1.82.51,2.15a3.89,3.89,0,0,0,2.25.51h9.55q3.79,0,6.54-.05c1.84,0,3.45-.08,4.86-.14s2.88-.13,4.42-.24a3,3,0,0,0,1.07-1,8.23,8.23,0,0,0,.89-1.79c.28-.76.59-1.72.91-2.89s.71-2.59,1.16-4.26q.9-3.4,2.22-7a67.85,67.85,0,0,1,3.05-7.07,51.75,51.75,0,0,1,3.85-6.52A32,32,0,0,1,250,5a21.66,21.66,0,0,1,5.42-3.64A14.39,14.39,0,0,1,261.65,0a11.87,11.87,0,0,1,4.5.82,9.07,9.07,0,0,1,3.33,2.32,9.18,9.18,0,0,1,2,3.53,10.78,10.78,0,0,1,.32,4.55,25.85,25.85,0,0,1-1.4,5.61,19.84,19.84,0,0,1-3.69,6,7.68,7.68,0,0,1-1.32,1.2,16.55,16.55,0,0,1-1.56,1,8.53,8.53,0,0,1-1.54.69A4.34,4.34,0,0,1,261,26h-1.81a38.06,38.06,0,0,0,1.5-5.08c.36-1.64.62-3.11.78-4.38a18,18,0,0,0,0-5.72c-.29-1.26-.78-1.89-1.49-1.89a3,3,0,0,0-1.83,1A20.92,20.92,0,0,0,256,12.21q-1.09,1.35-2.07,2.79c-.65.95-1.16,1.73-1.51,2.34a40,40,0,0,0-2.14,4.41c-.75,1.77-1.47,3.64-2.15,5.59s-1.31,3.87-1.88,5.77-1,3.55-1.27,5a6.76,6.76,0,0,0-.06,2.18.6.6,0,0,0,.58.48l2.24,0,3-.05,3.38-.06,3.28,0c.74,0,1.48,0,2.22.1a8.65,8.65,0,0,1,1.91.4,2.8,2.8,0,0,1,1.28.88A2,2,0,0,1,263.17,43.5Z"/><path d="M322.4,41.59a5.2,5.2,0,0,1-.49,1.33A13.55,13.55,0,0,1,320.59,45a91.86,91.86,0,0,1-6.07,7.18q-3.58,3.89-7.81,7.74c-2.81,2.57-5.8,5.05-8.94,7.45a94.7,94.7,0,0,1-9.45,6.35A56.73,56.73,0,0,1,279,78.2a24.67,24.67,0,0,1-8.5,1.68A23.65,23.65,0,0,1,262,78.5a13.28,13.28,0,0,1-5.67-4,14.48,14.48,0,0,1-2.88-6.43,27.4,27.4,0,0,1-.17-8.65,61.76,61.76,0,0,1,1.51-7.76,47.4,47.4,0,0,1,3.07-8.32,56.62,56.62,0,0,1,5.06-8.51,51.33,51.33,0,0,1,7.48-8.27,25.74,25.74,0,0,1,7.12-4.68,17.43,17.43,0,0,1,6.89-1.6,5.7,5.7,0,0,1,1.46.24,9,9,0,0,1,1.73.67,10.25,10.25,0,0,1,1.63,1,5.07,5.07,0,0,1,1.23,1.27,16.76,16.76,0,0,1,2,4.13,10.25,10.25,0,0,1,.32,4.38,23,23,0,0,1-1.92,6.92,28.4,28.4,0,0,1-3.6,5.77,43.76,43.76,0,0,1-5,5.18c-1.88,1.67-3.88,3.4-6,5.21a57.52,57.52,0,0,1-4.8,3.59c-1.89,1.3-3.93,2.71-6.1,4.23a12.1,12.1,0,0,0,.71,2.85,5.25,5.25,0,0,0,3.52,3.19,11.2,11.2,0,0,0,3.17.39,19.66,19.66,0,0,0,5.45-.85,46.68,46.68,0,0,0,6-2.18,34.83,34.83,0,0,0,5.31-3q2.67-1.79,5.4-3.69c1.13-.78,2.58-1.91,4.38-3.38s3.62-3,5.48-4.6q1.91-1.59,3.79-3.11t4-3.38l3.16-2.76q3.39-2.51,5.3-2.5c.68,0,1.08.19,1.21.58A2.59,2.59,0,0,1,322.4,41.59Zm-40.57-5.75a5.33,5.33,0,0,0-.31-3.29,1.75,1.75,0,0,0-1.51-1,3.43,3.43,0,0,0-2,1,18.32,18.32,0,0,0-2.53,2.58,43.68,43.68,0,0,0-2.75,3.77c-.94,1.44-1.83,3-2.68,4.55a42.06,42.06,0,0,0-2.26,4.92,35.88,35.88,0,0,0-1.52,4.86l3.07-2.31A32.85,32.85,0,0,0,272,48.71c.84-.74,1.79-1.65,2.86-2.74s2.11-2.2,3.1-3.37a29.21,29.21,0,0,0,2.59-3.51A8.06,8.06,0,0,0,281.83,35.84Z"/><path d="M354.76,37.55a5.61,5.61,0,0,1-1.83,3.59,5.2,5.2,0,0,1-3.63,1.4,5.55,5.55,0,0,1-2.51-.53,11.64,11.64,0,0,1-2-1.19c-.59-.45-1.13-.84-1.64-1.2a2.77,2.77,0,0,0-1.61-.53,4.61,4.61,0,0,0-2.15.64,15.77,15.77,0,0,0-2.55,1.73A38,38,0,0,0,334.05,44c-1,1-2,2-2.95,3-.7.75-1.48,1.64-2.35,2.69S327,51.83,326.11,53s-1.73,2.28-2.55,3.45-1.53,2.26-2.15,3.25-1.13,1.91-1.79,3.08-1.28,2.36-1.87,3.57-1.13,2.35-1.62,3.45a18.1,18.1,0,0,0-1,2.77c-.39,1.38-.76,2.66-1.11,3.83a15.14,15.14,0,0,1-1.25,3A5.57,5.57,0,0,1,311,81.31a4.52,4.52,0,0,1-2.61.69,5.85,5.85,0,0,1-4.15-1.22,5.69,5.69,0,0,1-1.67-3.14,15.47,15.47,0,0,1-.2-4.2c.12-1.52.19-3,.22-4.41,0-.92,0-1.84.08-2.77s.1-1.88.17-2.89.16-2.1.26-3.25.25-2.42.42-3.8q.33-2.72,1-6.06c.42-2.24.85-4.38,1.3-6.44s.88-3.88,1.31-5.48a26.5,26.5,0,0,1,1-3.19,14.52,14.52,0,0,1,1.77-2.74,15.35,15.35,0,0,1,2.28-2.28,11.55,11.55,0,0,1,2.48-1.57A5.7,5.7,0,0,1,317,28a7.74,7.74,0,0,1,2,.27,4.49,4.49,0,0,1,1.75.9,4.16,4.16,0,0,1,1.15,1.68,5.28,5.28,0,0,1,.21,2.58,4.6,4.6,0,0,1-.41,1.19c-.24.55-.57,1.34-1,2.37s-1,2.38-1.53,3.83-1.12,2.94-1.64,4.47-1,3-1.44,4.52a32.23,32.23,0,0,0-.91,4q.33-.59,1.2-2L318.23,49c.64-1,1.26-2,1.88-2.92s1.06-1.62,1.36-2.05c1.25-1.74,2.66-3.58,4.25-5.53a41.91,41.91,0,0,1,5.26-5.4A27.93,27.93,0,0,1,337.3,29a17,17,0,0,1,7.33-1.62,12.83,12.83,0,0,1,5,.87,8.62,8.62,0,0,1,3.26,2.32,7.78,7.78,0,0,1,1.64,3.27A10.47,10.47,0,0,1,354.76,37.55Z"/></svg>