<svg xmlns="http://www.w3.org/2000/svg" viewBox="0 0 226.77 85.04"><defs><style>.cls-1{fill:#231815;}.cls-2{fill:#004ea2;}.cls-3{fill:#fff;}.cls-4{fill:none;}.cls-5{fill:#e1251b;}.cls-6{fill:#0033a1;}</style></defs><title>isms</title><g id="レイヤー_2" data-name="レイヤー 2"><g id="レイヤー_1-2" data-name="レイヤー 1"><path class="cls-1" d="M111.18,42.64,126.8,68.81S141.63,44,142.36,42.64a9.82,9.82,0,0,0,.63-1.32H110.57A6,6,0,0,0,111.18,42.64Z"/><path class="cls-1" d="M134.37,30.12a9,9,0,0,0-7.5,3.93,9.17,9.17,0,0,0-16.68,4.61h33.22A9,9,0,0,0,134.37,30.12Z"/><path class="cls-1" d="M159.41,42.53a32.6,32.6,0,1,1-32.6-32.6A32.59,32.59,0,0,1,159.41,42.53Zm-32.6-29.84a29.84,29.84,0,1,0,29.84,29.84A29.84,29.84,0,0,0,126.81,12.69Z"/><path class="cls-1" d="M131.75,18.28a1.06,1.06,0,1,0,1.06-1.05,1.07,1.07,0,0,0-1.06,1.05m2.15,9.44a1.84,1.84,0,0,0,.32,0V26.38c-.46,0-.61-.15-.61-.55V20.41H132v5.43a1.66,1.66,0,0,0,1.9,1.88m-6.48-5.23c0-.65.53-.9,1.38-.9A6,6,0,0,1,131,22V20.6a5.4,5.4,0,0,0-2.23-.36c-2.12,0-2.93,1.05-2.93,2.29s.53,1.92,2.71,2.1c1,.09,1.2.36,1.2.9s-.57.89-1.72.89a6.42,6.42,0,0,1-2.15-.4V27.4a6.88,6.88,0,0,0,2.38.39c2.31,0,3.07-1.08,3.07-2.32s-.56-2-2.72-2.18c-.94-.08-1.2-.3-1.2-.8m-5.3-.88c1.41,0,1.63,1.08,1.63,2.4s-.22,2.41-1.63,2.41a3.08,3.08,0,0,1-1.56-.42V22a3.08,3.08,0,0,1,1.56-.42m.38-1.37a3.71,3.71,0,0,0-1.94.56v-4H119V27.62h1l.26-.58a3.81,3.81,0,0,0,2.34.75c2.1,0,2.88-1.41,2.88-3.78s-.78-3.77-2.88-3.77"/><path class="cls-1" d="M134.79,26.74a1,1,0,1,0,1.05-1,1.06,1.06,0,0,0-1.05,1"/><path class="cls-1" d="M226.77,85H0V0H226.77ZM1.15,83.89H225.63V1.15H1.15Z"/><rect class="cls-2" x="173.03" y="14.34" width="42.67" height="42.67"/><path class="cls-3" d="M191,21a3.7,3.7,0,1,0,3.69-3.66A3.67,3.67,0,0,0,191,21Z"/><path class="cls-3" d="M192.55,27c-1.68,1.88-2.12,6.45-1.3,13.6a67.5,67.5,0,0,0,3.3,13.94.15.15,0,0,0,.15.11.15.15,0,0,0,.16-.11,67.5,67.5,0,0,0,3.3-13.94c.82-7.15.38-11.72-1.3-13.6a2.86,2.86,0,0,0-4.31,0Z"/><path class="cls-3" d="M177.06,28.77a3,3,0,0,0-1.13,2.16,4,4,0,0,0,1.57,2.79c1.81,1.59,7.81,5.07,24.3,3a.17.17,0,0,0,.14-.18.16.16,0,0,0-.17-.15c-7.34.15-13.83-1.27-16.15-3.53a2.74,2.74,0,0,1-.92-1.94c0-3.47,6-5.34,11.57-5.34a.17.17,0,0,0,.17-.16.17.17,0,0,0-.15-.18C186.56,24.43,179.5,26.51,177.06,28.77Zm24.72,7.91Z"/><path class="cls-3" d="M194.16,27.13a.17.17,0,0,0,0,.33c5.62,1.25,10.81,3.08,10.81,7.94a4.8,4.8,0,0,1-1.63,3.47c-3.47,3.33-11.66,5-22.49,4.62a.17.17,0,0,0-.17.15.18.18,0,0,0,.13.19c19.36,3.36,27.28-1.18,29.79-3.29a7,7,0,0,0,2.82-5.3,5,5,0,0,0-1.61-3.63C208.34,28.21,200.14,27.07,194.16,27.13Z"/><path class="cls-2" d="M200.13,71.72h-.65V68.61h.65Z"/><path class="cls-2" d="M201.64,70.76a.63.63,0,0,0,.12.32.68.68,0,0,0,.55.19,1.09,1.09,0,0,0,.39,0,.35.35,0,0,0,.27-.36.27.27,0,0,0-.13-.24,1.65,1.65,0,0,0-.43-.14l-.34-.08a1.89,1.89,0,0,1-.68-.24.75.75,0,0,1-.32-.67.9.9,0,0,1,.31-.7,1.58,1.58,0,0,1,1.75,0,.9.9,0,0,1,.37.76h-.62a.45.45,0,0,0-.25-.4.8.8,0,0,0-.39-.08.71.71,0,0,0-.41.1.31.31,0,0,0-.16.28.26.26,0,0,0,.15.25,1.92,1.92,0,0,0,.42.13l.54.13a1.37,1.37,0,0,1,.54.23.74.74,0,0,1,.28.63.89.89,0,0,1-.33.71,1.38,1.38,0,0,1-.93.28,1.57,1.57,0,0,1-1-.27.94.94,0,0,1-.35-.77Z"/><path class="cls-2" d="M206.49,68.69a.77.77,0,0,1,.29.22.87.87,0,0,1,.16.26.82.82,0,0,1,.05.33.86.86,0,0,1-.11.43.61.61,0,0,1-.37.31.56.56,0,0,1,.31.24,1,1,0,0,1,.09.49v.21a2,2,0,0,0,0,.29.27.27,0,0,0,.13.18v.07h-.72l-.05-.16a2.45,2.45,0,0,1,0-.27V71a.39.39,0,0,0-.47-.5h-.64v1.22h-.63V68.61H206A1.28,1.28,0,0,1,206.49,68.69Zm-1.35.46V70h.7a.85.85,0,0,0,.32,0,.36.36,0,0,0,.18-.36.41.41,0,0,0-.18-.38.71.71,0,0,0-.3,0Z"/><path class="cls-2" d="M209.73,69.05a2.35,2.35,0,0,1,.24,1.17,2.32,2.32,0,0,1-.24,1.17.86.86,0,0,1-.82.41.87.87,0,0,1-.82-.41,2.45,2.45,0,0,1-.23-1.17,2.47,2.47,0,0,1,.23-1.17.87.87,0,0,1,.82-.41A.86.86,0,0,1,209.73,69.05Zm-1.17,2a.34.34,0,0,0,.35.28.35.35,0,0,0,.36-.28,3.32,3.32,0,0,0,.08-.81,3.24,3.24,0,0,0-.08-.82.35.35,0,0,0-.36-.27.34.34,0,0,0-.35.27,2.76,2.76,0,0,0-.09.82A2.82,2.82,0,0,0,208.56,71Z"/><path class="cls-2" d="M212.57,69.05a2.35,2.35,0,0,1,.24,1.17,2.32,2.32,0,0,1-.24,1.17.86.86,0,0,1-.82.41.87.87,0,0,1-.82-.41,2.45,2.45,0,0,1-.23-1.17,2.47,2.47,0,0,1,.23-1.17.87.87,0,0,1,.82-.41A.86.86,0,0,1,212.57,69.05Zm-1.17,2a.34.34,0,0,0,.35.28.35.35,0,0,0,.36-.28,3.32,3.32,0,0,0,.08-.81,3.24,3.24,0,0,0-.08-.82.35.35,0,0,0-.36-.27.34.34,0,0,0-.35.27,2.76,2.76,0,0,0-.09.82A2.82,2.82,0,0,0,211.4,71Z"/><path class="cls-2" d="M215.67,71.06h-.35v.66h-.59v-.66h-1.21v-.52l1.12-1.86h.68v1.91h.35Zm-.94-.47V69.27L214,70.59Z"/><path class="cls-2" d="M173,72.55V67.67h1.9v4.88Z"/><path class="cls-2" d="M179.13,69.08a.42.42,0,0,0-.27-.33,1.26,1.26,0,0,0-.49-.09c-.42,0-.61.11-.61.28,0,.73,3.34.28,3.34,2.06,0,1.13-1.12,1.68-2.72,1.68s-2.53-.76-2.57-1.64h1.82a.57.57,0,0,0,.32.39,1.19,1.19,0,0,0,.54.12c.47,0,.79-.13.79-.36,0-.74-3.34-.23-3.34-2.09,0-1,1.06-1.56,2.52-1.56s2.34.69,2.48,1.54Z"/><path class="cls-2" d="M181.85,72.55V67.67h2.3l1,3,1-3h2.3v4.88h-1.71V71.06l0-.76.1-.88h0l-1,3.13h-1.32l-1.06-3.13h0l.08.71,0,.76v1.66Z"/><path class="cls-2" d="M192.57,69.08a.42.42,0,0,0-.27-.33,1.26,1.26,0,0,0-.49-.09c-.42,0-.61.11-.61.28,0,.73,3.34.28,3.34,2.06,0,1.13-1.12,1.68-2.72,1.68s-2.53-.76-2.57-1.64h1.82a.57.57,0,0,0,.32.39,1.19,1.19,0,0,0,.54.12c.47,0,.79-.13.79-.36,0-.74-3.34-.23-3.34-2.09,0-1,1.06-1.56,2.52-1.56s2.34.69,2.48,1.54Z"/><path class="cls-2" d="M179.79,61.61h-1.38c-.36,0-.67-.15-.67-.51h0c0-.35.31-.5.67-.5h2.64a.1.1,0,0,0,.1-.1V59.35a.1.1,0,0,0-.1-.1h-2.64a1.86,1.86,0,1,0,0,3.7h1.38c.36,0,.67.15.67.52s-.31.51-.67.51h-1.51c-.54,0-.6-.12-.6-.34v-.18a.11.11,0,0,0-.11-.1h-1.14a.1.1,0,0,0-.1.1v.17h0V64c0,.78.47,1.35,2,1.35h1.44a1.87,1.87,0,1,0,0-3.72Z"/><path class="cls-2" d="M194.32,61.61H193c-.36,0-.68-.15-.68-.51h0c0-.35.32-.5.68-.5h2.64a.11.11,0,0,0,.1-.1V59.35a.11.11,0,0,0-.1-.1H193a1.86,1.86,0,1,0,0,3.7h1.37c.37,0,.68.15.68.52s-.31.51-.68.51h-1.5c-.55,0-.61-.12-.61-.34v-.18a.1.1,0,0,0-.1-.1H191a.11.11,0,0,0-.11.1v.17h0V64c0,.78.48,1.35,2,1.35h1.44a1.87,1.87,0,1,0,0-3.72Z"/><path class="cls-2" d="M211.65,60.7h3.95a.11.11,0,0,0,.1-.1V59.35a.11.11,0,0,0-.1-.1h-4.08a1.94,1.94,0,0,0-2,1.85v2.37a2,2,0,0,0,2,1.86h4.08a.11.11,0,0,0,.1-.1V64a.11.11,0,0,0-.1-.1h-3.95c-.36,0-.67-.23-.67-.51V61.2C211,60.93,211.29,60.7,211.65,60.7Z"/><rect class="cls-2" x="197.33" y="61.51" width="3.9" height="1.35" rx="0.1" ry="0.1"/><path class="cls-2" d="M188.11,59.28h-.54a1.74,1.74,0,0,0-1.18.46,1.74,1.74,0,0,0-1.17-.46h-.54a1.94,1.94,0,0,0-1.85,2v4a.1.1,0,0,0,.1.1h1.48a.1.1,0,0,0,.1-.1v-4c0-.36.24-.68.51-.68h.2c.27,0,.5.32.5.68v4a.11.11,0,0,0,.1.1H187a.11.11,0,0,0,.1-.1v-4c0-.36.23-.68.5-.68h.2c.27,0,.51.32.51.68v4a.1.1,0,0,0,.1.1h1.48a.1.1,0,0,0,.1-.1v-4A1.94,1.94,0,0,0,188.11,59.28Z"/><path class="cls-2" d="M206.47,59.28H204.1a1.84,1.84,0,0,0-1.73,2v4a.11.11,0,0,0,.11.1h1.27a.11.11,0,0,0,.11-.1v-2h2.84v2a.11.11,0,0,0,.1.1h1.25a.11.11,0,0,0,.1-.1v-4A1.81,1.81,0,0,0,206.47,59.28Zm.23,2.66h-2.84V61.3a.64.64,0,0,1,.54-.68h1.76a.65.65,0,0,1,.54.68Z"/><rect class="cls-2" x="173.03" y="61.34" width="2.02" height="4.07" rx="0.1" ry="0.1"/><rect class="cls-2" x="173.03" y="59.15" width="2.02" height="0.38" rx="0.1" ry="0.1"/><rect class="cls-2" x="173.03" y="59.7" width="2.02" height="0.38" rx="0.1" ry="0.1"/><rect class="cls-2" x="173.03" y="60.25" width="2.02" height="0.38" rx="0.1" ry="0.1"/><rect class="cls-2" x="173.03" y="60.79" width="2.02" height="0.38" rx="0.1" ry="0.1"/><rect class="cls-4" x="173.03" y="59.15" width="42.67" height="6.26"/><polygon class="cls-5" points="65.76 63.28 27.3 63.28 27.3 58.47 65.76 58.47 65.76 63.28 65.76 63.28"/><polygon class="cls-5" points="31.55 61.12 9.95 61.12 9.95 60.59 31.55 60.59 31.55 61.12 31.55 61.12"/><polygon class="cls-5" points="83.11 61.12 62.75 61.12 62.75 60.59 83.11 60.59 83.11 61.12 83.11 61.12"/><polygon class="cls-3" points="33.62 62.37 33.62 59.55 34.11 59.55 34.11 62.37 33.62 62.37 33.62 62.37"/><path class="cls-3" d="M35.84,62.46a1.92,1.92,0,0,1-1.26-.5l.31-.35a1.51,1.51,0,0,0,1,.42c.39,0,.58-.17.58-.41,0-.62-1.83-.3-1.83-1.3,0-.48.43-.86,1.15-.86A1.39,1.39,0,0,1,37,60l-.34.29a1.11,1.11,0,0,0-.84-.42c-.39,0-.67.15-.67.39,0,.56,1.84.35,1.84,1.31,0,.51-.48.88-1.17.88Z"/><path class="cls-3" d="M39.49,60.65a.79.79,0,0,0-1.57,0v.62a.79.79,0,0,0,1.57,0v-.62Zm-.79,1.81a1.18,1.18,0,0,1-1.27-1.2v-.61a1.28,1.28,0,0,1,2.55,0v.61a1.19,1.19,0,0,1-1.28,1.2Z"/><polygon class="cls-3" points="40.63 62.79 40.3 62.79 41.44 59.28 41.77 59.28 40.63 62.79 40.63 62.79"/><polygon class="cls-3" points="42.16 62.37 42.16 59.55 42.65 59.55 42.65 62.37 42.16 62.37 42.16 62.37"/><polygon class="cls-3" points="43.32 62.37 43.32 59.55 45.36 59.55 45.36 59.97 43.8 59.97 43.8 60.7 44.97 60.7 44.97 61.11 43.8 61.11 43.8 61.95 45.36 61.95 45.36 62.37 43.32 62.37 43.32 62.37"/><path class="cls-3" d="M47.89,60.4a.88.88,0,0,0-.8-.52.77.77,0,0,0-.83.82v.54a.76.76,0,0,0,.85.79.84.84,0,0,0,.79-.52l.4.18a1.28,1.28,0,0,1-1.22.77,1.21,1.21,0,0,1-1.31-1.24v-.51a1.24,1.24,0,0,1,1.33-1.25,1.28,1.28,0,0,1,1.2.76l-.41.18Z"/><path class="cls-3" d="M49.94,62.37V59.78a.21.21,0,0,0,.24-.23h.23v2.82Z"/><path class="cls-3" d="M52,62.37h-.5A4.31,4.31,0,0,1,52.7,60H51v-.41h2.23v.34A4.28,4.28,0,0,0,52,62.37Z"/><path class="cls-3" d="M55.46,60.6a.73.73,0,1,0-1.45,0v.72a.73.73,0,1,0,1.45,0V60.6Zm-.73,1.86a1.12,1.12,0,0,1-1.2-1.14v-.71a1.2,1.2,0,0,1,2.4,0v.71a1.12,1.12,0,0,1-1.2,1.14Z"/><path class="cls-3" d="M56.35,62.37v-.16C56.35,61,58,60.94,58,60.32c0-.23-.19-.46-.59-.46a.83.83,0,0,0-.73.45l-.34-.25a1.22,1.22,0,0,1,1.08-.6c.69,0,1,.41,1,.85,0,.79-1.37.94-1.63,1.64h1.62v.42Z"/><path class="cls-3" d="M59.12,62.37V59.78c.18,0,.25-.1.25-.23h.23v2.82Z"/><polygon class="cls-6" points="19.08 68.92 19.08 66.31 18.91 66.74 17.94 68.92 17.53 68.92 16.57 66.74 16.4 66.31 16.4 68.92 15.86 68.92 15.86 65.56 16.66 65.56 17.6 67.77 17.75 68.18 17.91 67.77 18.83 65.56 19.63 65.56 19.63 68.92 19.08 68.92 19.08 68.92"/><path class="cls-6" d="M21.69,66.25l-.53,1.37h1.07l-.54-1.37Zm1,2.67-.33-.85H21l-.31.85h-.6l1.35-3.36H22l1.37,3.36Z"/><polygon class="cls-6" points="26.2 68.92 24.63 66.92 24.36 66.54 24.36 68.92 23.79 68.92 23.79 65.56 24.3 65.56 25.82 67.57 26.1 67.95 26.1 65.56 26.66 65.56 26.66 68.92 26.2 68.92 26.2 68.92"/><path class="cls-6" d="M28.72,66.25l-.52,1.37h1.06l-.54-1.37Zm1.05,2.67-.33-.85H28l-.31.85h-.6l1.35-3.36H29l1.37,3.36Z"/><path class="cls-6" d="M33.22,68.92l-.09-.4a1.26,1.26,0,0,1-1.05.5,1.39,1.39,0,0,1-1.48-1.46V67a1.47,1.47,0,0,1,1.57-1.49,1.43,1.43,0,0,1,1.41.85l-.49.26a1,1,0,0,0-.92-.61.91.91,0,0,0-1,1v.67a.9.9,0,0,0,1,.94.77.77,0,0,0,.83-.77v-.12H32.2v-.47h1.37v1.76Z"/><polygon class="cls-6" points="34.26 68.92 34.26 65.56 36.69 65.56 36.69 66.07 34.84 66.07 34.84 66.94 36.23 66.94 36.23 67.42 34.84 67.42 34.84 68.41 36.69 68.41 36.69 68.92 34.26 68.92 34.26 68.92"/><polygon class="cls-6" points="40.54 68.92 40.54 66.31 40.37 66.74 39.41 68.92 38.99 68.92 38.03 66.74 37.86 66.31 37.86 68.92 37.32 68.92 37.32 65.56 38.13 65.56 39.06 67.77 39.21 68.18 39.37 67.77 40.29 65.56 41.09 65.56 41.09 68.92 40.54 68.92 40.54 68.92"/><polygon class="cls-6" points="41.89 68.92 41.89 65.56 44.31 65.56 44.31 66.07 42.46 66.07 42.46 66.94 43.85 66.94 43.85 67.42 42.46 67.42 42.46 68.41 44.31 68.41 44.31 68.92 41.89 68.92 41.89 68.92"/><polygon class="cls-6" points="47.36 68.92 45.79 66.92 45.51 66.54 45.51 68.92 44.95 68.92 44.95 65.56 45.45 65.56 46.98 67.57 47.25 67.95 47.25 65.56 47.81 65.56 47.81 68.92 47.36 68.92 47.36 68.92"/><polygon class="cls-6" points="50.1 66.07 50.1 68.92 49.53 68.92 49.53 66.07 48.38 66.07 48.38 65.56 51.25 65.56 51.25 66.07 50.1 66.07 50.1 66.07"/><path class="cls-6" d="M54.39,69a2.28,2.28,0,0,1-1.5-.59l.37-.42a1.79,1.79,0,0,0,1.25.51c.46,0,.68-.21.68-.49,0-.74-2.17-.36-2.17-1.55,0-.57.52-1,1.37-1a1.63,1.63,0,0,1,1.4.66l-.4.34a1.34,1.34,0,0,0-1-.5c-.46,0-.79.18-.79.46,0,.67,2.18.41,2.18,1.56,0,.61-.57,1-1.39,1Z"/><polygon class="cls-6" points="57.91 67.57 57.91 68.92 57.33 68.92 57.33 67.56 56.01 65.56 56.67 65.56 57.65 67.11 58.58 65.56 59.22 65.56 57.91 67.57 57.91 67.57"/><path class="cls-6" d="M60.83,69a2.26,2.26,0,0,1-1.5-.59L59.7,68a1.79,1.79,0,0,0,1.25.51c.46,0,.68-.21.68-.49,0-.74-2.17-.36-2.17-1.55,0-.57.52-1,1.37-1a1.64,1.64,0,0,1,1.4.66l-.4.34a1.34,1.34,0,0,0-1-.5c-.47,0-.79.18-.79.46,0,.67,2.18.41,2.18,1.56,0,.61-.57,1-1.39,1Z"/><polygon class="cls-6" points="64.31 66.07 64.31 68.92 63.73 68.92 63.73 66.07 62.58 66.07 62.58 65.56 65.45 65.56 65.45 66.07 64.31 66.07 64.31 66.07"/><polygon class="cls-6" points="66.02 68.92 66.02 65.56 68.44 65.56 68.44 66.07 66.59 66.07 66.59 66.94 67.98 66.94 67.98 67.42 66.59 67.42 66.59 68.41 68.44 68.41 68.44 68.92 66.02 68.92 66.02 68.92"/><polygon class="cls-6" points="72.29 68.92 72.29 66.31 72.13 66.74 71.16 68.92 70.74 68.92 69.78 66.74 69.62 66.31 69.62 68.92 69.08 68.92 69.08 65.56 69.88 65.56 70.81 67.77 70.97 68.18 71.13 67.77 72.05 65.56 72.85 65.56 72.85 68.92 72.29 68.92 72.29 68.92"/><path class="cls-6" d="M74.91,69a2.31,2.31,0,0,1-1.51-.59l.38-.42a1.78,1.78,0,0,0,1.25.51c.45,0,.68-.21.68-.49,0-.74-2.18-.36-2.18-1.55,0-.57.52-1,1.37-1a1.65,1.65,0,0,1,1.41.66l-.4.34a1.34,1.34,0,0,0-1-.5c-.46,0-.79.18-.79.46,0,.67,2.18.41,2.18,1.56,0,.61-.56,1-1.38,1Z"/><path class="cls-6" d="M23.42,71.93a1,1,0,0,0-1-.62.91.91,0,0,0-1,1v.65a.91.91,0,0,0,1,.94,1,1,0,0,0,.94-.62l.48.21a1.53,1.53,0,0,1-1.45.92,1.45,1.45,0,0,1-1.57-1.47V72.3a1.48,1.48,0,0,1,1.59-1.49,1.54,1.54,0,0,1,1.43.9l-.49.22Z"/><polygon class="cls-6" points="24.45 74.27 24.45 70.92 26.88 70.92 26.88 71.42 25.03 71.42 25.03 72.29 26.42 72.29 26.42 72.77 25.03 72.77 25.03 73.77 26.88 73.77 26.88 74.27 24.45 74.27 24.45 74.27"/><path class="cls-6" d="M29.58,71.83c0-.23-.14-.43-.55-.43h-.94v1H29c.37,0,.55-.18.55-.46v-.15ZM30,74.29c-.31,0-.42-.18-.43-.52v-.45c0-.29-.14-.45-.6-.45h-.88v1.4h-.58V70.92H29c.83,0,1.18.36,1.18.87v.11c0,.37-.16.65-.68.75a.63.63,0,0,1,.67.68v.4a.37.37,0,0,0,.19.35v.21Z"/><polygon class="cls-6" points="32.37 71.42 32.37 74.27 31.79 74.27 31.79 71.42 30.65 71.42 30.65 70.92 33.51 70.92 33.51 71.42 32.37 71.42 32.37 71.42"/><polygon class="cls-6" points="34.08 74.27 34.08 70.92 34.66 70.92 34.66 74.27 34.08 74.27 34.08 74.27"/><polygon class="cls-6" points="36.03 71.42 36.03 72.38 37.4 72.38 37.4 72.86 36.03 72.86 36.03 74.27 35.46 74.27 35.46 70.92 37.85 70.92 37.85 71.42 36.03 71.42 36.03 71.42"/><polygon class="cls-6" points="38.41 74.27 38.41 70.92 38.99 70.92 38.99 74.27 38.41 74.27 38.41 74.27"/><path class="cls-6" d="M42.18,71.93a1,1,0,0,0-1-.62.91.91,0,0,0-1,1v.65a.91.91,0,0,0,1,.94,1,1,0,0,0,.94-.62l.48.21a1.53,1.53,0,0,1-1.45.92,1.44,1.44,0,0,1-1.56-1.47V72.3a1.47,1.47,0,0,1,1.58-1.49,1.54,1.54,0,0,1,1.43.9l-.49.22Z"/><path class="cls-6" d="M44.48,71.61,44,73H45l-.54-1.36Zm1.05,2.66-.33-.85H43.79l-.32.85h-.6l1.35-3.35h.55l1.37,3.35Z"/><polygon class="cls-6" points="47.79 71.42 47.79 74.27 47.21 74.27 47.21 71.42 46.07 71.42 46.07 70.92 48.94 70.92 48.94 71.42 47.79 71.42 47.79 71.42"/><polygon class="cls-6" points="49.5 74.27 49.5 70.92 50.08 70.92 50.08 74.27 49.5 74.27 49.5 74.27"/><path class="cls-6" d="M53.21,72.22a.94.94,0,0,0-1.87,0V73a.94.94,0,0,0,1.87,0v-.74Zm-.94,2.16A1.41,1.41,0,0,1,50.75,73v-.73a1.52,1.52,0,0,1,3,0V73a1.41,1.41,0,0,1-1.52,1.42Z"/><polygon class="cls-6" points="56.87 74.27 55.3 72.28 55.02 71.89 55.02 74.27 54.46 74.27 54.46 70.92 54.97 70.92 56.49 72.92 56.77 73.3 56.77 70.92 57.33 70.92 57.33 74.27 56.87 74.27 56.87 74.27"/><path class="cls-6" d="M61.53,73.25c0-.27-.16-.45-.54-.45H60v1h1c.37,0,.49-.19.49-.42v-.12Zm0-1.43c0-.23-.13-.42-.49-.42H60v1h1c.37,0,.54-.18.54-.45v-.11ZM61,74.27h-1.6V70.92H61c.75,0,1.08.34,1.08.85v.08a.68.68,0,0,1-.6.72.69.69,0,0,1,.65.7v.13c0,.52-.36.87-1.1.87Z"/><path class="cls-6" d="M65.13,72.22a.94.94,0,0,0-1.88,0V73a.94.94,0,0,0,1.88,0v-.74Zm-.94,2.16A1.41,1.41,0,0,1,62.67,73v-.73a1.52,1.52,0,0,1,3,0V73a1.41,1.41,0,0,1-1.52,1.42Z"/><path class="cls-6" d="M68.7,72.26a.84.84,0,0,0-1-.84H67v2.35h.79a.84.84,0,0,0,1-.84v-.67Zm-.92,2h-1.4V70.92h1.4a1.33,1.33,0,0,1,1.49,1.31V73a1.32,1.32,0,0,1-1.49,1.3Z"/><polygon class="cls-6" points="71.35 72.92 71.35 74.27 70.77 74.27 70.77 72.92 69.44 70.92 70.11 70.92 71.08 72.46 72.01 70.92 72.65 70.92 71.35 72.92 71.35 72.92"/><path class="cls-6" d="M38.51,32.32c0-.94,2.62-1.7,5.85-1.7s5.85.76,5.85,1.7S47.59,34,44.36,34s-5.85-.76-5.85-1.69Z"/><polygon class="cls-6" points="48.1 31.77 47.01 48.13 42.82 48.41 40.97 32.07 48.1 31.77 48.1 31.77"/><path class="cls-6" d="M12.71,51.75l-.79,1.52h1.6l-.81-1.52Zm1.56,2.91-.48-.89H11.66l-.46.89h-.71l1.95-3.61H13l2,3.61Z"/><path class="cls-6" d="M22.18,52.07a2.09,2.09,0,0,0-1.45-.58,1.39,1.39,0,0,0-1.51,1.35v.07a1.4,1.4,0,0,0,1.56,1.32,2.11,2.11,0,0,0,1.42-.58l.41.43a2.71,2.71,0,0,1-1.87.72,2,2,0,0,1-2.2-1.86v-.12a2.07,2.07,0,0,1,2.23-1.9,2.61,2.61,0,0,1,1.84.72l-.43.43Z"/><path class="cls-6" d="M30.16,52.07a2.09,2.09,0,0,0-1.45-.58,1.39,1.39,0,0,0-1.51,1.35v.07a1.4,1.4,0,0,0,1.56,1.32,2.07,2.07,0,0,0,1.42-.58l.41.43a2.71,2.71,0,0,1-1.87.72,2,2,0,0,1-2.2-1.86v-.12a2.07,2.07,0,0,1,2.23-1.9,2.61,2.61,0,0,1,1.84.72l-.43.43Z"/><path class="cls-6" d="M37.58,52.13c0-.26-.21-.52-.79-.52H35.4V52.7h1.45c.5,0,.73-.24.73-.53v0Zm.26,2.53c-.19,0-.27-.25-.29-.58l0-.37c0-.36-.17-.51-.85-.51H35.4v1.46h-.68V51.05h2c1.09,0,1.58.43,1.58,1,0,.4-.21.77-.91.9.7.06.86.38.86.8V54a.8.8,0,0,0,.22.61h-.61Z"/><polygon class="cls-6" points="42.59 54.66 42.59 51.05 45.87 51.05 45.87 51.61 43.27 51.61 43.27 52.54 45.27 52.54 45.27 53.09 43.27 53.09 43.27 54.1 45.87 54.1 45.87 54.66 42.59 54.66 42.59 54.66"/><path class="cls-6" d="M53.35,52.81c0-.7-.55-1.2-1.44-1.2H50.76v2.5h1.15c.89,0,1.44-.51,1.44-1.21v-.09Zm-1.42,1.85H50.08V51.05h1.85A1.87,1.87,0,0,1,54,52.8v.12a1.87,1.87,0,0,1-2.1,1.74Z"/><polygon class="cls-6" points="58.21 54.66 58.21 51.05 58.89 51.05 58.89 54.66 58.21 54.66 58.21 54.66"/><polygon class="cls-6" points="65.33 51.61 65.33 54.66 64.65 54.66 64.65 51.61 63.07 51.61 63.07 51.05 66.91 51.05 66.91 51.61 65.33 51.61 65.33 51.61"/><polygon class="cls-6" points="71.09 54.66 71.09 51.05 74.37 51.05 74.37 51.61 71.77 51.61 71.77 52.54 73.77 52.54 73.77 53.09 71.77 53.09 71.77 54.1 74.37 54.1 74.37 54.66 71.09 54.66 71.09 54.66"/><path class="cls-6" d="M81.85,52.81c0-.7-.55-1.2-1.43-1.2H79.26v2.5h1.16a1.26,1.26,0,0,0,1.43-1.21v-.09Zm-1.42,1.85H78.58V51.05h1.85a1.87,1.87,0,0,1,2.1,1.75v.12a1.87,1.87,0,0,1-2.1,1.74Z"/><path class="cls-5" d="M42,26.45C39.19,21,44.38,21.89,45.3,19c.66,3.53-3.51,2.53-3.31,7.41Zm7.66-4.31a3.12,3.12,0,0,1-1.74,3.32,3.12,3.12,0,0,0-.85-3.53c1.61-1.5,4.13-3.9.7-12,0,0,1.05,5.15-1.34,7.31s-7.91,3.42-7.91,7.73c.16,4.6,2.83,4.64,4.37,4.69.9,0,2.64.08,3.34,0a5,5,0,0,0,2-.42c2.35-1.38,2.45-4.58,1.48-7Z"/><path class="cls-6" d="M49.65,28.69a.68.68,0,0,1-.11-.29,4.32,4.32,0,0,1,0-.56,4.13,4.13,0,0,1-.33.43,1.42,1.42,0,0,1-.29.21l-.64-.15a.74.74,0,0,1-.14-.28c0-.22-.06-.56-.06-.56s-.16.28-.29.46a1.49,1.49,0,0,1-.28.23l-.65-.1a.65.65,0,0,1-.15-.27c-.06-.22-.11-.55-.11-.55a4.73,4.73,0,0,1-.25.48,1.54,1.54,0,0,1-.26.25l-.65,0a.67.67,0,0,1-.18-.25c-.07-.21-.15-.55-.15-.55a3.69,3.69,0,0,1-.21.5,2.15,2.15,0,0,1-.23.28q-.33,0-.66,0a1,1,0,0,1-.2-.25c-.09-.2-.19-.52-.19-.52a4.57,4.57,0,0,1-.17.51,1.54,1.54,0,0,1-.21.29l-.66.05a.74.74,0,0,1-.21-.22,5,5,0,0,1-.23-.52,3.83,3.83,0,0,1-.14.53,1.23,1.23,0,0,1-.19.31l-.65.1a.76.76,0,0,1-.23-.21,5.25,5.25,0,0,1-.27-.49,4.4,4.4,0,0,1-.1.53,1.44,1.44,0,0,1-.16.33l-.64.15a.64.64,0,0,1-.25-.19,5.41,5.41,0,0,1-.31-.47,4.54,4.54,0,0,1,0,.54,2,2,0,0,1-.14.34l-.53.17.72,2.1a15.84,15.84,0,0,1,5.19-.79,15.8,15.8,0,0,1,5.19.79l.72-2.1-.63-.21Z"/><path class="cls-6" d="M76,38.27c0,.84-.49,1.26-1.66,1.26H72V36.79h2.43c1.17,0,1.66.4,1.66,1.24v.24Zm0,5.06c0,.84-.49,1.24-1.66,1.24H72V41.83h2.43c1.17,0,1.66.39,1.66,1.23v.27Zm-21.65-.76L56,37.93l1.41,4.64Zm-36.06,0,1.59-4.64,1.41,4.64Zm60.46-1.93A3.85,3.85,0,0,0,82,37.06v-.19c0-2.79-2.19-4.45-5.82-4.45H65.77v16l-6.14-16H53L47,48.13,47.63,38a3.69,3.69,0,0,0-3.07-1.34A3.17,3.17,0,0,0,41.67,38l.27,2.88-.6-.72-1-1.28-5.36-6.47H29.71v16l-6.14-16H16.92L10.67,48.87h5.4l1-2.72h5.38l.87,2.72H35.38V41.14l1.06,1.31,5.38,6.42H52.13l1-2.72H58.5l.88,2.72H76.43c3.62,0,5.79-1.66,5.79-4.45v-.27c0-1.51-1.15-3.09-3.43-3.51Z"/><path class="cls-3" d="M43.69,47.49a.28.28,0,0,1-.23.31.26.26,0,0,1-.25-.27h0c0-.23-.54-13.71-.54-13.71s.8,9.22,1,13.67Z"/><path class="cls-3" d="M44.55,47.51a.28.28,0,0,1-.24.3.27.27,0,0,1-.24-.29h0c0-.23,0-15.13.07-15.13s.3,10.65.41,15.12Z"/><path class="cls-3" d="M45.41,47.52h0a.29.29,0,0,1-.25.29c-.13,0-.23-.14-.23-.3h0c0-.23.38-15.13.4-15.12s.08,10.66.08,15.13Z"/><path class="cls-3" d="M46.27,47.53h0a.26.26,0,0,1-.25.27.28.28,0,0,1-.23-.31h0c0-.23.85-13.68.85-13.68s-.26,9.25-.37,13.72Z"/></g></g></svg>